<?xml version="1.0" standalone="no"?>
<!DOCTYPE svg PUBLIC "-//W3C//DTD SVG 20010904//EN"
 "http://www.w3.org/TR/2001/REC-SVG-20010904/DTD/svg10.dtd">
<svg version="1.0" xmlns="http://www.w3.org/2000/svg"
 width="1024.000000pt" height="1024.000000pt" viewBox="0 0 1024.000000 1024.000000"
 preserveAspectRatio="xMidYMid meet">

<g transform="translate(0.000000,1024.000000) scale(0.100000,-0.100000)"
fill="#000000" stroke="none">
<path d="M3780 7698 c-51 -19 -134 -99 -1251 -1217 -1147 -1147 -1198 -1198
-1218 -1254 -28 -76 -28 -168 0 -244 20 -56 70 -107 1213 -1249 966 -967 1200
-1196 1241 -1215 72 -34 181 -38 257 -9 73 27 141 92 176 168 32 70 35 161 8
242 -17 52 -60 96 -920 958 l-901 902 3132 0 c2279 0 3146 3 3185 11 71 15
116 39 165 89 68 67 88 119 88 225 0 75 -4 98 -24 139 -33 66 -91 122 -160
155 l-56 26 -3165 3 -3165 2 902 903 c859 861 902 905 919 957 73 219 -77 431
-304 429 -42 0 -88 -8 -122 -21z"/>
</g>
</svg>
