<?xml version="1.0" standalone="no"?>
<!DOCTYPE svg PUBLIC "-//W3C//DTD SVG 20010904//EN"
 "http://www.w3.org/TR/2001/REC-SVG-20010904/DTD/svg10.dtd">
<svg version="1.0" xmlns="http://www.w3.org/2000/svg"
 width="1024.000000pt" height="1024.000000pt" viewBox="0 0 1024.000000 1024.000000"
 preserveAspectRatio="xMidYMid meet">

<g transform="translate(0.000000,1024.000000) scale(0.100000,-0.100000)"
fill="#000000" stroke="none">
<path d="M6223 7699 c-68 -26 -138 -95 -171 -167 -32 -70 -35 -161 -8 -242 17
-52 60 -96 920 -957 l901 -903 -3132 0 c-2279 0 -3146 -3 -3185 -11 -71 -15
-116 -39 -165 -89 -68 -67 -88 -119 -88 -225 0 -75 4 -98 24 -139 33 -66 91
-122 160 -155 l56 -26 3165 -3 3165 -2 -902 -903 c-859 -861 -902 -905 -919
-957 -89 -268 157 -506 423 -409 56 20 107 70 1254 1218 1148 1147 1198 1198
1218 1254 28 76 28 168 0 244 -20 56 -70 107 -1213 1249 -965 965 -1200 1196
-1241 1215 -70 33 -189 37 -262 8z"/>
</g>
</svg>
